<svg width="24" height="24" viewBox="0 0 24 24" fill="none" xmlns="http://www.w3.org/2000/svg"><path d="M23.6381 14.9029C22.0353 21.3315 15.5243 25.2438 9.09495 23.6407C2.66827 22.038 -1.24406 15.5266 0.359419 9.09838C1.9614 2.66907 8.47246 -1.24364 14.8999 0.359095C21.3288 1.96183 25.2408 8.47401 23.6381 14.9029Z" fill="#F7931A"/><path d="M17.2895 10.2905C17.5284 8.69379 16.3126 7.83542 14.6503 7.2628L15.1895 5.09982L13.8729 4.7717L13.3479 6.87768C13.0018 6.79143 12.6463 6.71006 12.293 6.62943L12.8218 4.50958L11.5059 4.18146L10.9663 6.34369C10.6798 6.27844 10.3986 6.21394 10.1256 6.14606L10.1271 6.13931L8.31133 5.68594L7.96108 7.09218C7.96108 7.09218 8.93795 7.31605 8.91732 7.32993C9.45057 7.46305 9.54694 7.81592 9.53082 8.09567L8.91657 10.5598C8.95332 10.5691 9.00095 10.5826 9.05345 10.6036C9.00957 10.5928 8.9627 10.5808 8.91432 10.5691L8.05333 14.021C7.98808 14.183 7.82271 14.426 7.44996 14.3337C7.46309 14.3529 6.49297 14.0949 6.49297 14.0949L5.83936 15.602L7.55271 16.0291C7.87146 16.109 8.18383 16.1926 8.49133 16.2713L7.94646 18.4591L9.26157 18.7872L9.80119 16.6227C10.1604 16.7202 10.5092 16.8102 10.8504 16.895L10.3127 19.0493L11.6293 19.3774L12.1742 17.1938C14.4193 17.6187 16.1075 17.4473 16.8181 15.4167C17.3907 13.7817 16.7896 12.8386 15.6084 12.2236C16.4686 12.0253 17.1166 11.4594 17.2895 10.2905V10.2905ZM14.2813 14.5089C13.8744 16.1438 11.1216 15.26 10.2291 15.0383L10.9521 12.14C11.8445 12.3627 14.7065 12.8037 14.2813 14.5089ZM14.6885 10.2669C14.3173 11.7541 12.026 10.9985 11.2828 10.8133L11.9383 8.18454C12.6815 8.36979 15.0751 8.71554 14.6885 10.2669V10.2669Z" fill="white"/></svg>