<svg width="25" height="24" viewBox="0 0 25 24" fill="none" xmlns="http://www.w3.org/2000/svg"><path fill-rule="evenodd" clip-rule="evenodd" d="M5.38881 1.66339L1.01262 10.8556C0.995968 10.8898 0.990691 10.9284 0.997561 10.9658C1.00443 11.0032 1.02309 11.0374 1.0508 11.0635L12.8698 22.3889C12.9034 22.4211 12.9481 22.4391 12.9946 22.4391C13.0411 22.4391 13.0859 22.4211 13.1194 22.3889L24.9385 11.0642C24.9662 11.0381 24.9848 11.0039 24.9917 10.9665C24.9986 10.9291 24.9933 10.8905 24.9766 10.8563L20.6005 1.6641C20.5863 1.63323 20.5636 1.60708 20.535 1.58877C20.5064 1.57046 20.4732 1.56078 20.4392 1.56087H5.55144C5.51733 1.56044 5.48382 1.5699 5.45496 1.58809C5.42611 1.60628 5.40313 1.63243 5.38881 1.66339V1.66339V1.66339Z" fill="#50AF95"/><path fill-rule="evenodd" clip-rule="evenodd" d="M14.5131 11.7996C14.4282 11.8059 13.9898 11.8321 13.0119 11.8321C12.2341 11.8321 11.6819 11.8088 11.4881 11.7996C8.48228 11.6673 6.23868 11.1441 6.23868 10.5176C6.23868 9.89113 8.48228 9.36859 11.4881 9.23424V11.2784C11.6847 11.2926 12.2475 11.3258 13.0253 11.3258C13.9587 11.3258 14.4261 11.2869 14.5102 11.2791V9.23566C17.5097 9.3693 19.7484 9.89254 19.7484 10.5176C19.7484 11.1427 17.5104 11.6659 14.5102 11.7989L14.5131 11.7996ZM14.5131 9.02424V7.19499H18.699V4.40552H7.30214V7.19499H11.4874V9.02353C8.0856 9.17979 5.52734 9.85365 5.52734 10.6612C5.52734 11.4686 8.0856 12.1418 11.4874 12.2988V18.1606H14.5123V12.2967C17.9064 12.1404 20.4604 11.4672 20.4604 10.6604C20.4604 9.85365 17.9085 9.1805 14.5123 9.02353L14.5131 9.02424Z" fill="white"/></svg>