<svg width="51" height="24" viewBox="0 0 51 24" fill="none" xmlns="http://www.w3.org/2000/svg"><path d="M22.6869 19.7692H18.6821L21.187 4.28076H25.1916L22.6869 19.7692Z" fill="#00579F"/><path d="M37.2048 4.6594C36.4148 4.34602 35.162 4 33.6128 4C29.6579 4 26.8729 6.10895 26.8558 9.12412C26.8229 11.3487 28.8498 12.5843 30.3657 13.326C31.9151 14.084 32.4418 14.5787 32.4418 15.2543C32.426 16.2919 31.1898 16.7702 30.0367 16.7702C28.4378 16.7702 27.5811 16.5236 26.2792 15.9463L25.7518 15.6989L25.1914 19.1757C26.1307 19.6036 27.8612 19.9834 29.6579 20C33.86 20 36.5957 17.9237 36.6281 14.7105C36.6441 12.9474 35.5739 11.5964 33.2665 10.4924C31.8658 9.78374 31.008 9.30589 31.008 8.58078C31.0244 7.9216 31.7335 7.24643 33.3147 7.24643C34.6166 7.21336 35.5732 7.52631 36.2979 7.83947L36.6601 8.00394L37.2048 4.6594V4.6594Z" fill="#00579F"/><path d="M42.5277 14.2822C42.8575 13.3924 44.1266 9.94865 44.1266 9.94865C44.1099 9.98172 44.4557 9.04244 44.6535 8.46581L44.9333 9.80039C44.9333 9.80039 45.6917 13.5078 45.8564 14.2822C45.2305 14.2822 43.3187 14.2822 42.5277 14.2822ZM47.4711 4.28076H44.3734C43.4181 4.28076 42.6923 4.56064 42.2802 5.56584L36.3315 19.769H40.5337C40.5337 19.769 41.2255 17.8573 41.3742 17.4456C41.8352 17.4456 45.923 17.4456 46.516 17.4456C46.631 17.9894 46.9939 19.769 46.9939 19.769H50.702L47.4711 4.28076V4.28076Z" fill="#00579F"/><path d="M15.3373 4.28076L11.4152 14.8424L10.9866 12.7004C10.2615 10.2287 7.98746 7.5434 5.44971 6.20816L9.04215 19.7528H13.2771L19.572 4.28076H15.3373V4.28076Z" fill="#00579F"/><path d="M7.77319 4.28076H1.32983L1.26392 4.59371C6.29014 5.87901 9.61891 8.97717 10.9866 12.701L9.58584 5.58271C9.35524 4.59349 8.64656 4.31339 7.77319 4.28076Z" fill="#FAA61A"/></svg>