<svg width="27" height="24" viewBox="0 0 27 24" fill="none" xmlns="http://www.w3.org/2000/svg"><path d="M17.146 5.71112H10.146V18.2889H17.146V5.71112Z" fill="#FF5F00"/><path d="M10.5905 12C10.5905 9.44444 11.7905 7.17778 13.635 5.71111C12.2794 4.64445 10.5683 4 8.70166 4C4.27944 4 0.70166 7.57778 0.70166 12C0.70166 16.4222 4.27944 20 8.70166 20C10.5683 20 12.2794 19.3556 13.635 18.2889C11.7905 16.8444 10.5905 14.5556 10.5905 12Z" fill="#EB001B"/><path d="M26.5906 12C26.5906 16.4222 23.0128 20 18.5906 20C16.7239 20 15.0128 19.3556 13.6572 18.2889C15.5239 16.8222 16.7017 14.5556 16.7017 12C16.7017 9.44444 15.5017 7.17778 13.6572 5.71111C15.0128 4.64445 16.7239 4 18.5906 4C23.0128 4 26.5906 7.6 26.5906 12Z" fill="#F79E1B"/></svg>