<svg width="26" height="24" viewBox="0 0 26 24" fill="none" xmlns="http://www.w3.org/2000/svg"><path fill-rule="evenodd" clip-rule="evenodd" d="M18.0968 21.0426C20.147 21.0426 22.3713 21.744 24.834 23.9206C25.0807 24.1384 25.4091 23.8676 25.1935 23.5967C22.7739 20.5486 20.536 19.9683 18.3042 19.4781C15.5736 18.8774 14.1697 17.3446 13.1912 15.6621C12.9967 15.3277 12.9089 15.3867 12.8915 15.8172C12.8695 16.343 12.9066 17.0397 13.0247 17.7252C12.9142 17.7297 12.8037 17.729 12.6917 17.729C8.78653 17.729 5.62003 14.5696 5.62003 10.6726C5.62003 6.77641 8.78653 3.61781 12.6924 3.61781C16.5976 3.61781 19.7641 6.77641 19.7641 10.6726C19.7641 10.9503 19.7505 11.2249 19.7187 11.4935C19.2025 11.4004 18.1861 11.3898 17.4732 11.4511C17.2053 11.4746 17.2431 11.5994 17.446 11.6357C19.7838 12.0571 21.389 13.5029 21.7568 16.1258C21.7643 16.1864 21.8446 16.2038 21.8756 16.1516C22.8696 14.497 23.3932 12.6027 23.39 10.6726C23.39 4.77912 18.6001 0 12.6924 0C6.784 0 1.99414 4.77836 1.99414 10.6726C1.99414 16.5677 6.784 21.3468 12.6924 21.3468C14.259 21.3468 15.815 21.0426 18.0968 21.0426ZM18.893 17.1676C19.369 17.5686 19.5136 18.046 19.2623 18.3826C19.1223 18.5672 18.8953 18.6693 18.6228 18.6693C18.357 18.6694 18.0996 18.5762 17.8955 18.4061C17.4626 18.0286 17.3355 17.4173 17.6178 17.07C17.7283 16.9338 17.9076 16.8589 18.1226 16.8589C18.3837 16.8589 18.6576 16.9686 18.893 17.1676ZM21.0893 16.1478C21.1589 16.6153 21.0113 16.809 20.8622 16.809C20.6995 16.809 20.4959 16.6199 20.256 16.2454C20.0184 15.8762 19.9313 15.4525 20.0494 15.2384C20.1266 15.0969 20.2893 15.0349 20.4944 15.1128C20.8917 15.2619 21.0469 15.8686 21.0893 16.1478Z" fill="#FF8C00"/></svg>