<svg width="44" height="44" viewBox="0 0 44 44" fill="none" xmlns="http://www.w3.org/2000/svg">
<path d="M22 44C34.1502 44 44 34.1502 44 22C44 9.84975 34.1502 0 22 0C9.84975 0 0 9.84975 0 22C0 34.1502 9.84975 44 22 44Z" fill="#34AADF"/>
<path d="M9.15614 21.8092C9.15614 21.8092 20.1561 17.2948 23.9711 15.7052C25.4336 15.0694 30.3931 13.0347 30.3931 13.0347C30.3931 13.0347 32.6821 12.1446 32.4914 14.3064C32.4277 15.1966 31.9191 18.3121 31.4105 21.6821C30.6474 26.4509 29.8208 31.6647 29.8208 31.6647C29.8208 31.6647 29.6937 33.1272 28.6128 33.3815C27.5319 33.6358 25.7514 32.4914 25.4336 32.237C25.1792 32.0463 20.6648 29.185 19.0116 27.7861C18.5665 27.4046 18.0579 26.6417 19.0751 25.7515C21.3642 23.6532 24.0983 21.0463 25.7514 19.3931C26.5145 18.6301 27.2774 16.8497 24.0983 19.0115C19.5839 22.1272 15.133 25.052 15.133 25.052C15.133 25.052 14.1156 25.6878 12.2082 25.1156C10.3006 24.5434 8.07514 23.7804 8.07514 23.7804C8.07514 23.7804 6.54922 22.8266 9.15614 21.8092V21.8092Z" fill="white"/>
</svg>
