<svg width="249" height="60" viewBox="0 0 249 60" fill="none" xmlns="http://www.w3.org/2000/svg">
<path d="M1.03448 0.558609H12.3672L16.7566 17.5577L21.146 0.558609H32.4787V28.5711H25.3758V7.18265L19.9489 28.4913H13.5643L8.13737 7.18265V28.4913H1.03448V0.558609Z" fill="white"/>
<path d="M55.2239 23.8625H45.3278L43.971 28.4913H35.1922L45.7268 0.478821H55.1441L65.6787 28.4913H56.6605L55.2239 23.8625ZM53.3884 17.8769L50.2759 7.82113L47.2432 17.8769H53.3884Z" fill="white"/>
<path d="M68.472 28.4913V0.558609H82.9172C85.5509 0.558609 87.6259 0.798033 89.0624 1.27688C90.499 1.75573 91.6163 2.5538 92.4942 3.83073C93.372 5.10765 93.7711 6.54419 93.7711 8.37977C93.7711 9.89612 93.4519 11.2528 92.8134 12.3702C92.1749 13.4875 91.2172 14.4452 90.0999 15.0836C89.3817 15.5625 88.3442 15.8817 87.0672 16.2009C88.1047 16.5202 88.823 16.9192 89.3019 17.2384C89.6211 17.4779 90.0999 17.9567 90.6586 18.675C91.297 19.3932 91.6961 20.0317 91.8557 20.4307L96.0057 28.5711H86.2692L81.6403 20.0317C81.0817 18.9144 80.523 18.1961 80.0442 17.8769C79.4057 17.4779 78.6874 17.2384 77.8893 17.2384H77.0913V28.5711H68.472V28.4913ZM77.1711 11.8913H80.8422C81.2413 11.8913 82.0393 11.7317 83.1567 11.4923C83.7153 11.4125 84.1942 11.0932 84.5932 10.6144C84.9922 10.1355 85.1519 9.57689 85.1519 9.01823C85.1519 8.14035 84.8326 7.42208 84.274 6.94323C83.7153 6.46438 82.598 6.22496 81.0817 6.22496H77.2509V11.8913H77.1711Z" fill="white"/>
<path d="M117.873 23.8625H108.057L106.7 28.4913H97.8413L108.376 0.478821H117.793L128.328 28.4913H119.31L117.873 23.8625ZM116.117 17.8769L113.005 7.82113L109.972 17.8769H116.117Z" fill="white"/>
<path d="M125.136 0.558609H151.392V7.50188H142.534V28.5711H133.914V7.42208H125.056V0.558609H125.136Z" fill="white"/>
<path d="M155.383 0.558609H164.002V10.375H173.419V0.558609H182.118V28.5711H173.419V17.1586H164.002V28.4913H155.383V0.558609Z" fill="white"/>
<path d="M186.747 14.525C186.747 9.97597 188.024 6.38462 190.578 3.83077C193.132 1.27692 196.643 0 201.192 0C205.821 0 209.412 1.27692 211.966 3.75096C214.52 6.225 215.717 9.73654 215.717 14.2856C215.717 17.5577 215.159 20.2712 214.041 22.3462C212.924 24.4212 211.328 26.0971 209.253 27.2144C207.178 28.4116 204.544 28.9702 201.512 28.9702C198.319 28.9702 195.765 28.4914 193.69 27.4539C191.615 26.4164 189.939 24.8202 188.662 22.6654C187.465 20.5106 186.747 17.7971 186.747 14.525ZM195.446 14.6048C195.446 17.3981 196.005 19.4731 197.042 20.6702C198.08 21.8673 199.516 22.5058 201.352 22.5058C203.187 22.5058 204.624 21.8673 205.662 20.6702C206.699 19.4731 207.178 17.3183 207.178 14.126C207.178 11.4923 206.619 9.57693 205.582 8.37981C204.544 7.1827 203.108 6.54423 201.272 6.54423C199.516 6.54423 198.16 7.1827 197.042 8.37981C195.925 9.65674 195.446 11.7317 195.446 14.6048Z" fill="white"/>
<path d="M220.506 0.558609H228.566L239.101 16.0413V0.558609H247.241V28.5711H239.101L228.646 13.1682V28.5711H220.506V0.558609Z" fill="white"/>
<path d="M95.2076 39.8241H104.705C106.301 39.8241 107.498 40.2232 108.376 41.0213C109.254 41.8193 109.653 42.777 109.653 43.8943C109.653 44.852 109.334 45.7299 108.775 46.3684C108.376 46.8472 107.817 47.1665 107.019 47.4857C108.216 47.8049 109.094 48.2838 109.653 48.9222C110.211 49.6405 110.451 50.4386 110.451 51.5559C110.451 52.4338 110.291 53.152 109.892 53.8703C109.493 54.5088 108.935 55.0674 108.296 55.4665C107.897 55.7059 107.259 55.8655 106.381 56.0251C105.263 56.1847 104.465 56.2645 104.146 56.2645H95.447V39.8241H95.2076ZM100.315 46.2088H102.55C103.348 46.2088 103.907 46.0491 104.226 45.8097C104.545 45.5703 104.705 45.1713 104.705 44.6126C104.705 44.1338 104.545 43.7347 104.226 43.4953C103.907 43.2559 103.348 43.0963 102.63 43.0963H100.395V46.2088H100.315ZM100.315 52.6732H102.869C103.747 52.6732 104.385 52.5136 104.705 52.1943C105.024 51.8751 105.263 51.4761 105.263 50.9174C105.263 50.4386 105.104 50.0395 104.705 49.7203C104.385 49.4011 103.747 49.2415 102.869 49.2415H100.315V52.6732Z" fill="white"/>
<path d="M117.155 39.8242H130.722V43.3357H122.262V45.9694H130.163V49.3213H122.262V52.5136H130.961V56.1848H117.155V39.8242Z" fill="white"/>
<path d="M137.665 39.8242H153.068V43.8944H147.881V56.1848H142.853V43.8146H137.665V39.8242Z" fill="white"/>
<path d="M60.4114 43.1761L68.073 47.0068C65.8384 43.0963 62.0076 40.702 56.5009 40.9414C58.3364 44.6924 61.848 47.4059 67.3547 47.4857L60.4114 43.1761Z" fill="white"/>
<path d="M48.4403 41.5799L55.0643 46.8472C53.7874 42.6174 50.5153 39.4251 45.0884 38.627C46.046 42.6174 49.0787 46.2886 54.5057 47.4059C54.5057 47.4857 48.4403 41.5799 48.4403 41.5799Z" fill="white"/>
<path d="M37.1874 39.4251L43.4124 45.0914C42.3749 40.7818 39.422 37.4299 33.9951 36.3126C34.6335 40.3828 37.5864 44.2934 42.9335 45.7299L37.1874 39.4251Z" fill="white"/>
<path d="M62.1672 56.4241L68.3124 50.9174C67.3547 55.227 64.4018 58.4991 59.0547 59.5366C59.6134 55.5462 62.1672 51.7155 67.5143 50.3587C67.5941 50.2789 62.1672 56.4241 62.1672 56.4241Z" fill="white"/>
<path d="M46.9239 55.227L54.5855 51.7953C52.271 55.5462 48.3605 57.7809 42.9335 57.2222C44.8489 53.6309 48.6797 50.8376 54.1864 51.077C54.2662 51.077 46.9239 55.227 46.9239 55.227Z" fill="white"/>
<path d="M34.7931 50.7578L42.9335 49.2414C40.1403 52.3539 35.9105 53.4712 30.6431 51.8751C32.9576 48.8424 37.347 47.1664 42.6941 48.4433C42.6941 48.3635 34.7931 50.7578 34.7931 50.7578Z" fill="white"/>
<path d="M26.0941 40.2232L34.0749 43.3357C31.521 39.6645 27.371 37.5895 21.9441 38.3876C24.0989 41.979 28.1691 44.6924 33.6758 44.2136C33.7556 44.2136 26.0941 40.2232 26.0941 40.2232Z" fill="white"/>
<path d="M74.697 46.528L75.9739 47.6453C75.9739 47.6453 69.5095 51.7953 52.5903 49.7203C41.3374 48.3635 34.3143 43.9741 34.4739 43.9741C39.9806 46.1289 48.9191 49.401 58.496 49.002C68.073 48.6828 70.4672 48.3635 74.697 46.528Z" fill="white"/>
<path d="M187.864 43.1761L180.203 47.0068C182.437 43.0963 186.268 40.702 191.775 40.9414C189.939 44.6924 186.428 47.4059 180.921 47.4857L187.864 43.1761Z" fill="white"/>
<path d="M199.836 41.5799L193.212 46.8472C194.488 42.6174 197.761 39.4251 203.187 38.627C202.23 42.6174 199.197 46.2886 193.77 47.4059C193.77 47.4857 199.836 41.5799 199.836 41.5799Z" fill="white"/>
<path d="M211.088 39.4251L204.863 45.0914C205.901 40.7818 208.854 37.4299 214.281 36.3126C213.642 40.3828 210.689 44.2934 205.342 45.7299C205.263 45.7299 211.088 39.4251 211.088 39.4251Z" fill="white"/>
<path d="M186.029 56.4241L179.884 50.9174C180.841 55.227 183.794 58.4991 189.141 59.5366C188.583 55.5462 185.949 51.7155 180.682 50.3587C180.682 50.2789 186.029 56.4241 186.029 56.4241Z" fill="white"/>
<path d="M201.352 55.227L193.69 51.7953C196.005 55.5462 199.915 57.7809 205.342 57.2222C203.427 53.6309 199.596 50.8376 194.089 51.077C194.01 51.077 201.352 55.227 201.352 55.227Z" fill="white"/>
<path d="M213.483 50.7578L205.342 49.2414C208.136 52.3539 212.365 53.4712 217.633 51.8751C215.318 48.8424 210.929 47.1664 205.582 48.4433C205.582 48.3635 213.483 50.7578 213.483 50.7578Z" fill="white"/>
<path d="M222.182 40.2232L214.201 43.3357C216.755 39.6645 220.905 37.5895 226.332 38.3876C224.177 41.979 220.107 44.6924 214.6 44.2136C214.52 44.2136 222.182 40.2232 222.182 40.2232Z" fill="white"/>
<path d="M173.579 46.528L172.302 47.6453C172.302 47.6453 178.766 51.7953 195.686 49.7203C206.938 48.3635 213.962 43.9741 213.802 43.9741C208.295 46.1289 199.357 49.401 189.78 49.002C180.203 48.6828 177.729 48.3635 173.579 46.528Z" fill="white"/>
</svg>
